<svg width="130" height="398" viewBox="0 0 130 398" fill="none" xmlns="http://www.w3.org/2000/svg">
    <symbol id="light0">
        <g clip-path="url(#clip0_79_1365)">
            <path d="M3.31786 24.6594V9.65936L16.3179 16.6594V32.6594L3.31786 24.6594Z" fill="#404764" fill-opacity="0.48" />
            <path d="M31.4652 8.33715L17.6193 0.116361C17.3604 -0.03756 17.0386 -0.03756 16.7797 0.109365L2.74491 7.98733C2.48604 8.13426 2.31813 8.40712 2.31813 8.70796L2.12223 24.8067C2.11523 25.1076 2.27615 25.3804 2.52802 25.5343L16.4439 33.8811C16.5768 33.958 16.7238 34 16.8777 34C17.0176 34 17.1575 33.965 17.2905 33.8951L31.3323 26.0171C31.5981 25.8702 31.7591 25.5903 31.7591 25.2895L31.878 9.06478C31.878 8.76393 31.7241 8.48408 31.4652 8.33715ZM16.157 31.7542L3.80137 24.345L3.97628 10.2262L16.157 17.4185V31.7542ZM17.0106 15.9702L4.79486 8.76393L17.1785 1.80949L29.3803 9.05079L17.0106 15.9702ZM30.0799 24.7857L17.8362 31.6562V17.4255L30.1849 10.52L30.0799 24.7857Z" fill="#404764" />
            <path d="M11.3785 20.9237C11.5184 20.9237 11.6583 20.8887 11.7913 20.8188C12.1971 20.5879 12.337 20.0771 12.1131 19.6783C11.8892 19.2725 11.3785 19.1326 10.9727 19.3565C10.5669 19.5804 10.427 20.0911 10.6509 20.4969C10.8048 20.7698 11.0846 20.9237 11.3785 20.9237Z" fill="#404764" />
            <path d="M8.57293 22.5049C8.71286 22.5049 8.85278 22.4699 8.98572 22.4C9.39151 22.1761 9.53144 21.6583 9.30755 21.2595C9.08367 20.8538 8.56593 20.7138 8.16714 20.9377C7.76134 21.1616 7.62142 21.6793 7.8453 22.0781C7.99223 22.351 8.27908 22.5049 8.57293 22.5049Z" fill="#404764" />
            <path d="M14.191 19.3495C14.331 19.3495 14.4709 19.3145 14.6038 19.2446C15.0096 19.0207 15.1496 18.5029 14.9257 18.1041C14.7018 17.6984 14.1841 17.5584 13.7853 17.7823C13.3795 18.0062 13.2395 18.5239 13.4634 18.9227C13.6103 19.1956 13.8972 19.3495 14.191 19.3495Z" fill="#404764" />
            <path d="M5.76736 24.0791C5.90728 24.0791 6.04721 24.0441 6.18014 23.9741C6.58594 23.7433 6.72586 23.2325 6.50198 22.8337C6.2711 22.4279 5.76036 22.288 5.36156 22.5119C4.95577 22.7358 4.81584 23.2535 5.03973 23.6523C5.18665 23.9252 5.47351 24.0791 5.76736 24.0791Z" fill="#404764" />
            <path d="M24.8746 22.5889C25.0075 22.6658 25.1544 22.7078 25.3014 22.7078C25.5882 22.7078 25.8681 22.5609 26.022 22.295C26.2599 21.8962 26.1269 21.3785 25.7281 21.1476C25.3293 20.9097 24.8116 21.0426 24.5737 21.4414C24.3429 21.8402 24.4758 22.351 24.8746 22.5889Z" fill="#404764" />
            <path d="M22.104 20.9447C22.2369 21.0217 22.3839 21.0636 22.5308 21.0636C22.8176 21.0636 23.0975 20.9167 23.2514 20.6508C23.4893 20.252 23.3564 19.7343 22.9576 19.5034C22.5588 19.2655 22.041 19.3985 21.8101 19.7973C21.5793 20.1961 21.7052 20.7068 22.104 20.9447Z" fill="#404764" />
            <path d="M19.3404 19.3005C19.4733 19.3775 19.6203 19.4195 19.7672 19.4195C20.054 19.4195 20.3339 19.2726 20.4878 19.0067C20.7257 18.6079 20.5928 18.0902 20.194 17.8593C19.7952 17.6214 19.2774 17.7543 19.0466 18.1531C18.8087 18.5519 18.9416 19.0627 19.3404 19.3005Z" fill="#404764" />
            <path d="M27.6452 24.233C27.7781 24.31 27.925 24.352 28.0719 24.352C28.3588 24.352 28.6387 24.205 28.7926 23.9392C29.0305 23.5404 28.8975 23.0226 28.4987 22.7848C28.0999 22.5469 27.5822 22.6798 27.3513 23.0786C27.1134 23.4774 27.2464 23.9951 27.6452 24.233Z" fill="#404764" />
            <path d="M17.0876 9.65948C16.6258 9.65248 16.241 10.0233 16.241 10.492C16.234 10.9538 16.6048 11.3386 17.0666 11.3386C17.0666 11.3386 17.0736 11.3386 17.0806 11.3386C17.5423 11.3386 17.9131 10.9678 17.9201 10.506C17.9201 10.0443 17.5493 9.65948 17.0876 9.65948Z" fill="#404764" />
            <path d="M17.1225 6.43412C16.6608 6.42712 16.276 6.79793 16.276 7.2597C16.269 7.72146 16.6398 8.10626 17.1086 8.11326H17.1155C17.5773 8.11326 17.9481 7.74245 17.9551 7.28069C17.9621 6.82592 17.5913 6.44111 17.1225 6.43412Z" fill="#404764" />
            <path d="M17.1435 4.8949C17.1435 4.8949 17.1505 4.8949 17.1575 4.8949C17.6193 4.8949 17.9901 4.5241 17.9971 4.06233C18.0041 3.60057 17.6333 3.21577 17.1645 3.21577C16.7028 3.20877 16.318 3.57958 16.318 4.04134C16.311 4.5101 16.6818 4.88791 17.1435 4.8949Z" fill="#404764" />
            <path d="M17.0456 12.8778C16.5838 12.8708 16.199 13.2416 16.199 13.7034C16.192 14.1652 16.5628 14.55 17.0316 14.557H17.0386C17.5004 14.557 17.8712 14.1862 17.8782 13.7244C17.8782 13.2626 17.5074 12.8848 17.0456 12.8778Z" fill="#404764" />
        </g>
        <defs>
            <clipPath id="clip0_79_1365">
                <rect width="34" height="34" fill="white" />
            </clipPath>
        </defs>
    </symbol>
    <use href="#light0" x="20" y="20" />

    <symbol id="light2">
        <g clip-path="url(#clip0_79_1387)">
            <path d="M30.4987 24.6594V9.65936L17.4987 16.6594V32.6594L30.4987 24.6594Z" fill="#404764" fill-opacity="0.48" />
            <path d="M31.4652 8.33715L17.6193 0.116361C17.3604 -0.03756 17.0386 -0.03756 16.7797 0.109365L2.74491 7.98733C2.48604 8.13426 2.31813 8.40712 2.31813 8.70796L2.12223 24.8067C2.11523 25.1076 2.27615 25.3804 2.52802 25.5343L16.4439 33.8811C16.5768 33.958 16.7238 34 16.8777 34C17.0176 34 17.1575 33.965 17.2905 33.8951L31.3323 26.0171C31.5981 25.8702 31.7591 25.5903 31.7591 25.2895L31.878 9.06478C31.878 8.76393 31.7241 8.48408 31.4652 8.33715ZM16.157 31.7542L3.80137 24.345L3.97628 10.2262L16.157 17.4185V31.7542ZM17.0106 15.9702L4.79486 8.76393L17.1785 1.80949L29.3803 9.05079L17.0106 15.9702ZM30.0799 24.7857L17.8362 31.6562V17.4255L30.1849 10.52L30.0799 24.7857Z" fill="#404764" />
            <path d="M11.3785 20.9237C11.5184 20.9237 11.6583 20.8887 11.7913 20.8188C12.1971 20.5879 12.337 20.0771 12.1131 19.6783C11.8892 19.2725 11.3785 19.1326 10.9727 19.3565C10.5669 19.5804 10.427 20.0911 10.6509 20.4969C10.8048 20.7698 11.0846 20.9237 11.3785 20.9237Z" fill="#404764" />
            <path d="M8.57293 22.5049C8.71286 22.5049 8.85278 22.4699 8.98572 22.4C9.39151 22.1761 9.53144 21.6583 9.30755 21.2595C9.08367 20.8538 8.56593 20.7138 8.16714 20.9377C7.76134 21.1616 7.62142 21.6793 7.8453 22.0781C7.99223 22.351 8.27908 22.5049 8.57293 22.5049Z" fill="#404764" />
            <path d="M14.191 19.3495C14.331 19.3495 14.4709 19.3145 14.6038 19.2446C15.0096 19.0207 15.1496 18.5029 14.9257 18.1041C14.7018 17.6984 14.1841 17.5584 13.7853 17.7823C13.3795 18.0062 13.2395 18.5239 13.4634 18.9227C13.6103 19.1956 13.8972 19.3495 14.191 19.3495Z" fill="#404764" />
            <path d="M5.76736 24.0791C5.90728 24.0791 6.04721 24.0441 6.18014 23.9741C6.58594 23.7433 6.72586 23.2325 6.50198 22.8337C6.2711 22.4279 5.76036 22.288 5.36156 22.5119C4.95577 22.7358 4.81584 23.2535 5.03973 23.6523C5.18665 23.9252 5.47351 24.0791 5.76736 24.0791Z" fill="#404764" />
            <path d="M24.8746 22.5889C25.0075 22.6658 25.1544 22.7078 25.3014 22.7078C25.5882 22.7078 25.8681 22.5609 26.022 22.295C26.2599 21.8962 26.1269 21.3785 25.7281 21.1476C25.3293 20.9097 24.8116 21.0426 24.5737 21.4414C24.3429 21.8402 24.4758 22.351 24.8746 22.5889Z" fill="#404764" />
            <path d="M22.104 20.9447C22.2369 21.0217 22.3839 21.0636 22.5308 21.0636C22.8176 21.0636 23.0975 20.9167 23.2514 20.6508C23.4893 20.252 23.3564 19.7343 22.9576 19.5034C22.5588 19.2655 22.041 19.3985 21.8101 19.7973C21.5793 20.1961 21.7052 20.7068 22.104 20.9447Z" fill="#404764" />
            <path d="M19.3404 19.3005C19.4733 19.3775 19.6203 19.4195 19.7672 19.4195C20.054 19.4195 20.3339 19.2725 20.4878 19.0067C20.7257 18.6079 20.5928 18.0901 20.194 17.8593C19.7952 17.6214 19.2774 17.7543 19.0466 18.1531C18.8087 18.5519 18.9416 19.0626 19.3404 19.3005Z" fill="#404764" />
            <path d="M27.6452 24.233C27.7781 24.31 27.925 24.3519 28.0719 24.3519C28.3588 24.3519 28.6387 24.205 28.7926 23.9391C29.0305 23.5404 28.8975 23.0226 28.4987 22.7847C28.0999 22.5469 27.5822 22.6798 27.3513 23.0786C27.1134 23.4774 27.2464 23.9951 27.6452 24.233Z" fill="#404764" />
            <path d="M17.0876 9.65946C16.6258 9.65246 16.241 10.0233 16.241 10.492C16.234 10.9538 16.6048 11.3386 17.0666 11.3386C17.0666 11.3386 17.0736 11.3386 17.0806 11.3386C17.5423 11.3386 17.9131 10.9678 17.9201 10.506C17.9201 10.0443 17.5493 9.65946 17.0876 9.65946Z" fill="#404764" />
            <path d="M17.1225 6.43412C16.6608 6.42712 16.276 6.79793 16.276 7.2597C16.269 7.72146 16.6398 8.10626 17.1086 8.11326H17.1155C17.5773 8.11326 17.9481 7.74245 17.9551 7.28069C17.9621 6.82592 17.5913 6.44111 17.1225 6.43412Z" fill="#404764" />
            <path d="M17.1435 4.8949C17.1435 4.8949 17.1505 4.8949 17.1575 4.8949C17.6193 4.8949 17.9901 4.5241 17.9971 4.06233C18.0041 3.60057 17.6333 3.21577 17.1645 3.21577C16.7028 3.20877 16.318 3.57958 16.318 4.04134C16.311 4.5101 16.6818 4.88791 17.1435 4.8949Z" fill="#404764" />
            <path d="M17.0456 12.8778C16.5838 12.8708 16.199 13.2417 16.199 13.7034C16.192 14.1652 16.5628 14.55 17.0316 14.557H17.0386C17.5004 14.557 17.8712 14.1862 17.8782 13.7244C17.8782 13.2626 17.5074 12.8848 17.0456 12.8778Z" fill="#404764" />
        </g>
        <defs>
            <clipPath id="clip0_79_1387">
                <rect width="34" height="34" fill="white" />
            </clipPath>
        </defs>
    </symbol>
    <use href="#light2" x="20" y="74" />

    <symbol id="light4">
        <g clip-path="url(#clip0_79_1409)">
            <path d="M17.1575 16.8082V1.8082L30.1575 8.8082V24.8082L17.1575 16.8082Z" fill="#404764" fill-opacity="0.48" />
            <path d="M31.4652 8.33715L17.6193 0.116361C17.3604 -0.03756 17.0386 -0.03756 16.7797 0.109365L2.74491 7.98733C2.48604 8.13426 2.31813 8.40712 2.31813 8.70796L2.12223 24.8067C2.11523 25.1076 2.27615 25.3804 2.52802 25.5343L16.4439 33.8811C16.5768 33.958 16.7238 34 16.8777 34C17.0176 34 17.1575 33.965 17.2905 33.8951L31.3323 26.0171C31.5981 25.8702 31.7591 25.5903 31.7591 25.2895L31.878 9.06478C31.878 8.76393 31.7241 8.48408 31.4652 8.33715ZM16.157 31.7542L3.80137 24.345L3.97628 10.2262L16.157 17.4185V31.7542ZM17.0106 15.9702L4.79486 8.76393L17.1785 1.80949L29.3803 9.05079L17.0106 15.9702ZM30.0799 24.7857L17.8362 31.6562V17.4255L30.1849 10.52L30.0799 24.7857Z" fill="#404764" />
            <path d="M11.3785 20.9237C11.5184 20.9237 11.6583 20.8887 11.7913 20.8188C12.1971 20.5879 12.337 20.0771 12.1131 19.6783C11.8892 19.2725 11.3785 19.1326 10.9727 19.3565C10.5669 19.5804 10.427 20.0911 10.6509 20.4969C10.8048 20.7698 11.0846 20.9237 11.3785 20.9237Z" fill="#404764" />
            <path d="M8.57293 22.5049C8.71286 22.5049 8.85278 22.4699 8.98572 22.4C9.39151 22.1761 9.53144 21.6583 9.30755 21.2595C9.08367 20.8538 8.56593 20.7138 8.16714 20.9377C7.76134 21.1616 7.62142 21.6793 7.8453 22.0781C7.99223 22.351 8.27908 22.5049 8.57293 22.5049Z" fill="#404764" />
            <path d="M14.191 19.3495C14.331 19.3495 14.4709 19.3145 14.6038 19.2446C15.0096 19.0207 15.1496 18.5029 14.9257 18.1041C14.7018 17.6984 14.1841 17.5584 13.7853 17.7823C13.3795 18.0062 13.2395 18.5239 13.4634 18.9227C13.6103 19.1956 13.8972 19.3495 14.191 19.3495Z" fill="#404764" />
            <path d="M5.76736 24.0791C5.90728 24.0791 6.04721 24.0441 6.18014 23.9741C6.58594 23.7433 6.72586 23.2325 6.50198 22.8337C6.2711 22.4279 5.76036 22.288 5.36156 22.5119C4.95577 22.7358 4.81584 23.2535 5.03973 23.6523C5.18665 23.9252 5.47351 24.0791 5.76736 24.0791Z" fill="#404764" />
            <path d="M24.8746 22.5889C25.0075 22.6658 25.1544 22.7078 25.3014 22.7078C25.5882 22.7078 25.8681 22.5609 26.022 22.295C26.2599 21.8962 26.1269 21.3785 25.7281 21.1476C25.3293 20.9097 24.8116 21.0426 24.5737 21.4414C24.3429 21.8402 24.4758 22.351 24.8746 22.5889Z" fill="#404764" />
            <path d="M22.104 20.9447C22.2369 21.0217 22.3839 21.0636 22.5308 21.0636C22.8176 21.0636 23.0975 20.9167 23.2514 20.6508C23.4893 20.252 23.3564 19.7343 22.9576 19.5034C22.5588 19.2655 22.041 19.3985 21.8101 19.7973C21.5793 20.1961 21.7052 20.7068 22.104 20.9447Z" fill="#404764" />
            <path d="M19.3404 19.3005C19.4733 19.3775 19.6203 19.4195 19.7672 19.4195C20.054 19.4195 20.3339 19.2725 20.4878 19.0067C20.7257 18.6079 20.5928 18.0901 20.194 17.8593C19.7952 17.6214 19.2774 17.7543 19.0466 18.1531C18.8087 18.5519 18.9416 19.0626 19.3404 19.3005Z" fill="#404764" />
            <path d="M27.6452 24.233C27.7781 24.31 27.925 24.3519 28.0719 24.3519C28.3588 24.3519 28.6387 24.205 28.7926 23.9391C29.0305 23.5404 28.8975 23.0226 28.4987 22.7847C28.0999 22.5469 27.5822 22.6798 27.3513 23.0786C27.1134 23.4774 27.2464 23.9951 27.6452 24.233Z" fill="#404764" />
            <path d="M17.0876 9.65946C16.6258 9.65246 16.241 10.0233 16.241 10.492C16.234 10.9538 16.6048 11.3386 17.0666 11.3386C17.0666 11.3386 17.0736 11.3386 17.0806 11.3386C17.5423 11.3386 17.9131 10.9678 17.9201 10.506C17.9201 10.0443 17.5493 9.65946 17.0876 9.65946Z" fill="#404764" />
            <path d="M17.1225 6.43412C16.6608 6.42712 16.276 6.79793 16.276 7.2597C16.269 7.72146 16.6398 8.10626 17.1086 8.11326H17.1155C17.5773 8.11326 17.9481 7.74245 17.9551 7.28069C17.9621 6.82592 17.5913 6.44111 17.1225 6.43412Z" fill="#404764" />
            <path d="M17.1435 4.8949C17.1435 4.8949 17.1505 4.8949 17.1575 4.8949C17.6193 4.8949 17.9901 4.5241 17.9971 4.06233C18.0041 3.60057 17.6333 3.21577 17.1645 3.21577C16.7028 3.20877 16.318 3.57958 16.318 4.04134C16.311 4.5101 16.6818 4.88791 17.1435 4.8949Z" fill="#404764" />
            <path d="M17.0456 12.8778C16.5838 12.8708 16.199 13.2417 16.199 13.7034C16.192 14.1652 16.5628 14.55 17.0316 14.557H17.0386C17.5004 14.557 17.8712 14.1862 17.8782 13.7244C17.8782 13.2626 17.5074 12.8848 17.0456 12.8778Z" fill="#404764" />
        </g>
        <defs>
            <clipPath id="clip0_79_1409">
                <rect width="34" height="34" fill="white" />
            </clipPath>
        </defs>
    </symbol>
    <use href="#light4" x="20" y="128" />

    <symbol id="light5">
        <g clip-path="url(#clip0_79_1431)">
            <path d="M16.6706 16.8703V1.8703L3.67064 8.8703V24.8703L16.6706 16.8703Z" fill="#404764" fill-opacity="0.48" />
            <path d="M31.4652 8.33715L17.6193 0.116361C17.3604 -0.03756 17.0386 -0.03756 16.7797 0.109365L2.74491 7.98733C2.48604 8.13426 2.31813 8.40712 2.31813 8.70796L2.12223 24.8067C2.11523 25.1076 2.27615 25.3804 2.52802 25.5343L16.4439 33.8811C16.5768 33.958 16.7238 34 16.8777 34C17.0176 34 17.1575 33.965 17.2905 33.8951L31.3323 26.0171C31.5981 25.8702 31.7591 25.5903 31.7591 25.2895L31.878 9.06478C31.878 8.76393 31.7241 8.48408 31.4652 8.33715ZM16.157 31.7542L3.80137 24.345L3.97628 10.2262L16.157 17.4185V31.7542ZM17.0106 15.9702L4.79486 8.76393L17.1785 1.80949L29.3803 9.05079L17.0106 15.9702ZM30.0799 24.7857L17.8362 31.6562V17.4255L30.1849 10.52L30.0799 24.7857Z" fill="#404764" />
            <path d="M11.3785 20.9237C11.5184 20.9237 11.6583 20.8887 11.7913 20.8188C12.1971 20.5879 12.337 20.0771 12.1131 19.6783C11.8892 19.2725 11.3785 19.1326 10.9727 19.3565C10.5669 19.5804 10.427 20.0911 10.6509 20.4969C10.8048 20.7698 11.0846 20.9237 11.3785 20.9237Z" fill="#404764" />
            <path d="M8.57293 22.5049C8.71286 22.5049 8.85278 22.4699 8.98572 22.4C9.39151 22.1761 9.53144 21.6583 9.30755 21.2595C9.08367 20.8538 8.56593 20.7138 8.16714 20.9377C7.76134 21.1616 7.62142 21.6793 7.8453 22.0781C7.99223 22.351 8.27908 22.5049 8.57293 22.5049Z" fill="#404764" />
            <path d="M14.191 19.3495C14.331 19.3495 14.4709 19.3145 14.6038 19.2446C15.0096 19.0207 15.1496 18.5029 14.9257 18.1041C14.7018 17.6984 14.1841 17.5584 13.7853 17.7823C13.3795 18.0062 13.2395 18.5239 13.4634 18.9227C13.6103 19.1956 13.8972 19.3495 14.191 19.3495Z" fill="#404764" />
            <path d="M5.76736 24.0791C5.90728 24.0791 6.04721 24.0441 6.18014 23.9741C6.58594 23.7433 6.72586 23.2325 6.50198 22.8337C6.2711 22.4279 5.76036 22.288 5.36156 22.5119C4.95577 22.7358 4.81584 23.2535 5.03973 23.6523C5.18665 23.9252 5.47351 24.0791 5.76736 24.0791Z" fill="#404764" />
            <path d="M24.8746 22.5889C25.0075 22.6658 25.1544 22.7078 25.3014 22.7078C25.5882 22.7078 25.8681 22.5609 26.022 22.295C26.2599 21.8962 26.1269 21.3785 25.7281 21.1476C25.3293 20.9097 24.8116 21.0426 24.5737 21.4414C24.3429 21.8402 24.4758 22.351 24.8746 22.5889Z" fill="#404764" />
            <path d="M22.104 20.9447C22.2369 21.0217 22.3839 21.0636 22.5308 21.0636C22.8176 21.0636 23.0975 20.9167 23.2514 20.6508C23.4893 20.252 23.3564 19.7343 22.9576 19.5034C22.5588 19.2655 22.041 19.3985 21.8101 19.7973C21.5793 20.1961 21.7052 20.7068 22.104 20.9447Z" fill="#404764" />
            <path d="M19.3404 19.3005C19.4733 19.3775 19.6203 19.4195 19.7672 19.4195C20.054 19.4195 20.3339 19.2725 20.4878 19.0067C20.7257 18.6079 20.5928 18.0901 20.194 17.8593C19.7952 17.6214 19.2774 17.7543 19.0466 18.1531C18.8087 18.5519 18.9416 19.0626 19.3404 19.3005Z" fill="#404764" />
            <path d="M27.6452 24.233C27.7781 24.31 27.925 24.3519 28.0719 24.3519C28.3588 24.3519 28.6387 24.205 28.7926 23.9391C29.0305 23.5404 28.8975 23.0226 28.4987 22.7847C28.0999 22.5469 27.5822 22.6798 27.3513 23.0786C27.1134 23.4774 27.2464 23.9951 27.6452 24.233Z" fill="#404764" />
            <path d="M17.0876 9.65946C16.6258 9.65246 16.241 10.0233 16.241 10.492C16.234 10.9538 16.6048 11.3386 17.0666 11.3386C17.0666 11.3386 17.0736 11.3386 17.0806 11.3386C17.5423 11.3386 17.9131 10.9678 17.9201 10.506C17.9201 10.0443 17.5493 9.65946 17.0876 9.65946Z" fill="#404764" />
            <path d="M17.1225 6.43412C16.6608 6.42712 16.276 6.79793 16.276 7.2597C16.269 7.72146 16.6398 8.10626 17.1086 8.11326H17.1155C17.5773 8.11326 17.9481 7.74245 17.9551 7.28069C17.9621 6.82592 17.5913 6.44111 17.1225 6.43412Z" fill="#404764" />
            <path d="M17.1435 4.8949C17.1435 4.8949 17.1505 4.8949 17.1575 4.8949C17.6193 4.8949 17.9901 4.5241 17.9971 4.06233C18.0041 3.60057 17.6333 3.21577 17.1645 3.21577C16.7028 3.20877 16.318 3.57958 16.318 4.04134C16.311 4.5101 16.6818 4.88791 17.1435 4.8949Z" fill="#404764" />
            <path d="M17.0456 12.8778C16.5838 12.8708 16.199 13.2417 16.199 13.7034C16.192 14.1652 16.5628 14.55 17.0316 14.557H17.0386C17.5004 14.557 17.8712 14.1862 17.8782 13.7244C17.8782 13.2626 17.5074 12.8848 17.0456 12.8778Z" fill="#404764" />
        </g>
        <defs>
            <clipPath id="clip0_79_1431">
                <rect width="34" height="34" fill="white" />
            </clipPath>
        </defs>
    </symbol>
    <use href="#light5" x="20" y="182" />

    <symbol id="light3">
        <g clip-path="url(#clip0_79_1453)">
            <path d="M3.60399 8.56986L17.1762 0.901276L30.7483 8.87417L17.1762 16.9688L3.60399 8.56986Z" fill="#404764" fill-opacity="0.48" />
            <path d="M31.4652 8.33715L17.6193 0.116361C17.3604 -0.03756 17.0386 -0.03756 16.7797 0.109365L2.74491 7.98733C2.48604 8.13426 2.31813 8.40712 2.31813 8.70796L2.12223 24.8067C2.11523 25.1076 2.27615 25.3804 2.52802 25.5343L16.4439 33.8811C16.5768 33.958 16.7238 34 16.8777 34C17.0176 34 17.1575 33.965 17.2905 33.8951L31.3323 26.0171C31.5981 25.8702 31.7591 25.5903 31.7591 25.2895L31.878 9.06478C31.878 8.76393 31.7241 8.48408 31.4652 8.33715ZM16.157 31.7542L3.80137 24.345L3.97628 10.2262L16.157 17.4185V31.7542ZM17.0106 15.9702L4.79486 8.76393L17.1785 1.80949L29.3803 9.05079L17.0106 15.9702ZM30.0799 24.7857L17.8362 31.6562V17.4255L30.1849 10.52L30.0799 24.7857Z" fill="#404764" />
            <path d="M11.3785 20.9237C11.5184 20.9237 11.6583 20.8887 11.7913 20.8188C12.1971 20.5879 12.337 20.0771 12.1131 19.6783C11.8892 19.2725 11.3785 19.1326 10.9727 19.3565C10.5669 19.5804 10.427 20.0911 10.6509 20.4969C10.8048 20.7698 11.0846 20.9237 11.3785 20.9237Z" fill="#404764" />
            <path d="M8.57293 22.5049C8.71286 22.5049 8.85278 22.4699 8.98572 22.4C9.39151 22.1761 9.53144 21.6583 9.30755 21.2595C9.08367 20.8538 8.56593 20.7138 8.16714 20.9377C7.76134 21.1616 7.62142 21.6793 7.8453 22.0781C7.99223 22.351 8.27908 22.5049 8.57293 22.5049Z" fill="#404764" />
            <path d="M14.191 19.3495C14.331 19.3495 14.4709 19.3145 14.6038 19.2446C15.0096 19.0207 15.1496 18.5029 14.9257 18.1041C14.7018 17.6984 14.1841 17.5584 13.7853 17.7823C13.3795 18.0062 13.2395 18.5239 13.4634 18.9227C13.6103 19.1956 13.8972 19.3495 14.191 19.3495Z" fill="#404764" />
            <path d="M5.76736 24.0791C5.90728 24.0791 6.04721 24.0441 6.18014 23.9741C6.58594 23.7433 6.72586 23.2325 6.50198 22.8337C6.2711 22.4279 5.76036 22.288 5.36156 22.5119C4.95577 22.7358 4.81584 23.2535 5.03973 23.6523C5.18665 23.9252 5.47351 24.0791 5.76736 24.0791Z" fill="#404764" />
            <path d="M24.8746 22.5889C25.0075 22.6658 25.1544 22.7078 25.3014 22.7078C25.5882 22.7078 25.8681 22.5609 26.022 22.295C26.2599 21.8962 26.1269 21.3785 25.7281 21.1476C25.3293 20.9097 24.8116 21.0426 24.5737 21.4414C24.3429 21.8402 24.4758 22.351 24.8746 22.5889Z" fill="#404764" />
            <path d="M22.104 20.9447C22.2369 21.0217 22.3839 21.0636 22.5308 21.0636C22.8176 21.0636 23.0975 20.9167 23.2514 20.6508C23.4893 20.252 23.3564 19.7343 22.9576 19.5034C22.5588 19.2655 22.041 19.3985 21.8101 19.7973C21.5793 20.1961 21.7052 20.7068 22.104 20.9447Z" fill="#404764" />
            <path d="M19.3404 19.3005C19.4733 19.3775 19.6203 19.4195 19.7672 19.4195C20.054 19.4195 20.3339 19.2725 20.4878 19.0067C20.7257 18.6079 20.5928 18.0901 20.194 17.8593C19.7952 17.6214 19.2774 17.7543 19.0466 18.1531C18.8087 18.5519 18.9416 19.0626 19.3404 19.3005Z" fill="#404764" />
            <path d="M27.6452 24.233C27.7781 24.31 27.925 24.3519 28.0719 24.3519C28.3588 24.3519 28.6387 24.205 28.7926 23.9391C29.0305 23.5404 28.8975 23.0226 28.4987 22.7847C28.0999 22.5469 27.5822 22.6798 27.3513 23.0786C27.1134 23.4774 27.2464 23.9951 27.6452 24.233Z" fill="#404764" />
            <path d="M17.0876 9.65946C16.6258 9.65246 16.241 10.0233 16.241 10.492C16.234 10.9538 16.6048 11.3386 17.0666 11.3386C17.0666 11.3386 17.0736 11.3386 17.0806 11.3386C17.5423 11.3386 17.9131 10.9678 17.9201 10.506C17.9201 10.0443 17.5493 9.65946 17.0876 9.65946Z" fill="#404764" />
            <path d="M17.1225 6.43412C16.6608 6.42712 16.276 6.79793 16.276 7.2597C16.269 7.72146 16.6398 8.10626 17.1086 8.11326H17.1155C17.5773 8.11326 17.9481 7.74245 17.9551 7.28069C17.9621 6.82592 17.5913 6.44111 17.1225 6.43412Z" fill="#404764" />
            <path d="M17.1435 4.8949C17.1435 4.8949 17.1505 4.8949 17.1575 4.8949C17.6193 4.8949 17.9901 4.5241 17.9971 4.06233C18.0041 3.60057 17.6333 3.21577 17.1645 3.21577C16.7028 3.20877 16.318 3.57958 16.318 4.04134C16.311 4.5101 16.6818 4.88791 17.1435 4.8949Z" fill="#404764" />
            <path d="M17.0456 12.8778C16.5838 12.8708 16.199 13.2417 16.199 13.7034C16.192 14.1652 16.5628 14.55 17.0316 14.557H17.0386C17.5004 14.557 17.8712 14.1862 17.8782 13.7244C17.8782 13.2626 17.5074 12.8848 17.0456 12.8778Z" fill="#404764" />
        </g>
        <defs>
            <clipPath id="clip0_79_1453">
                <rect width="34" height="34" fill="white" />
            </clipPath>
        </defs>
    </symbol>
    <use href="#light3" x="20" y="236" />

    <symbol id="light1">
        <g clip-path="url(#clip0_79_1475)">
            <path d="M3.60399 24.6686L17.1762 17L30.7483 24.9729L17.1762 33.0675L3.60399 24.6686Z" fill="#404764" fill-opacity="0.48" />
            <path d="M31.4652 8.33715L17.6193 0.116361C17.3604 -0.03756 17.0386 -0.03756 16.7797 0.109365L2.74491 7.98733C2.48604 8.13426 2.31813 8.40712 2.31813 8.70796L2.12223 24.8067C2.11523 25.1076 2.27615 25.3804 2.52802 25.5343L16.4439 33.8811C16.5768 33.958 16.7238 34 16.8777 34C17.0176 34 17.1575 33.965 17.2905 33.8951L31.3323 26.0171C31.5981 25.8702 31.7591 25.5903 31.7591 25.2895L31.878 9.06478C31.878 8.76393 31.7241 8.48408 31.4652 8.33715ZM16.157 31.7542L3.80137 24.345L3.97628 10.2262L16.157 17.4185V31.7542ZM17.0106 15.9702L4.79486 8.76393L17.1785 1.80949L29.3803 9.05079L17.0106 15.9702ZM30.0799 24.7857L17.8362 31.6562V17.4255L30.1849 10.52L30.0799 24.7857Z" fill="#404764" />
            <path d="M11.3785 20.9237C11.5184 20.9237 11.6583 20.8887 11.7913 20.8188C12.1971 20.5879 12.337 20.0771 12.1131 19.6783C11.8892 19.2725 11.3785 19.1326 10.9727 19.3565C10.5669 19.5804 10.427 20.0911 10.6509 20.4969C10.8048 20.7698 11.0846 20.9237 11.3785 20.9237Z" fill="#404764" />
            <path d="M8.57293 22.5049C8.71286 22.5049 8.85278 22.4699 8.98572 22.3999C9.39151 22.176 9.53144 21.6583 9.30755 21.2595C9.08367 20.8537 8.56593 20.7138 8.16714 20.9377C7.76134 21.1616 7.62142 21.6793 7.8453 22.0781C7.99223 22.351 8.27908 22.5049 8.57293 22.5049Z" fill="#404764" />
            <path d="M14.191 19.3495C14.331 19.3495 14.4709 19.3145 14.6038 19.2445C15.0096 19.0206 15.1496 18.5029 14.9257 18.1041C14.7018 17.6983 14.1841 17.5584 13.7853 17.7823C13.3795 18.0062 13.2395 18.5239 13.4634 18.9227C13.6103 19.1956 13.8972 19.3495 14.191 19.3495Z" fill="#404764" />
            <path d="M5.76736 24.0791C5.90728 24.0791 6.04721 24.0441 6.18014 23.9741C6.58594 23.7433 6.72586 23.2325 6.50198 22.8337C6.2711 22.4279 5.76036 22.288 5.36156 22.5119C4.95577 22.7358 4.81584 23.2535 5.03973 23.6523C5.18665 23.9252 5.47351 24.0791 5.76736 24.0791Z" fill="#404764" />
            <path d="M24.8746 22.5889C25.0075 22.6658 25.1544 22.7078 25.3014 22.7078C25.5882 22.7078 25.8681 22.5609 26.022 22.295C26.2599 21.8962 26.1269 21.3785 25.7281 21.1476C25.3293 20.9097 24.8116 21.0426 24.5737 21.4414C24.3429 21.8402 24.4758 22.351 24.8746 22.5889Z" fill="#404764" />
            <path d="M22.104 20.9447C22.2369 21.0217 22.3839 21.0636 22.5308 21.0636C22.8176 21.0636 23.0975 20.9167 23.2514 20.6508C23.4893 20.252 23.3564 19.7343 22.9576 19.5034C22.5588 19.2655 22.041 19.3985 21.8101 19.7973C21.5793 20.1961 21.7052 20.7068 22.104 20.9447Z" fill="#404764" />
            <path d="M19.3404 19.3005C19.4733 19.3775 19.6203 19.4195 19.7672 19.4195C20.054 19.4195 20.3339 19.2725 20.4878 19.0067C20.7257 18.6079 20.5928 18.0901 20.194 17.8593C19.7952 17.6214 19.2774 17.7543 19.0466 18.1531C18.8087 18.5519 18.9416 19.0626 19.3404 19.3005Z" fill="#404764" />
            <path d="M27.6452 24.233C27.7781 24.31 27.925 24.3519 28.0719 24.3519C28.3588 24.3519 28.6387 24.205 28.7926 23.9391C29.0305 23.5404 28.8975 23.0226 28.4987 22.7847C28.0999 22.5469 27.5822 22.6798 27.3513 23.0786C27.1134 23.4774 27.2464 23.9951 27.6452 24.233Z" fill="#404764" />
            <path d="M17.0876 9.65946C16.6258 9.65246 16.241 10.0233 16.241 10.492C16.234 10.9538 16.6048 11.3386 17.0666 11.3386C17.0666 11.3386 17.0736 11.3386 17.0806 11.3386C17.5423 11.3386 17.9131 10.9678 17.9201 10.506C17.9201 10.0443 17.5493 9.65946 17.0876 9.65946Z" fill="#404764" />
            <path d="M17.1225 6.43412C16.6608 6.42712 16.276 6.79793 16.276 7.2597C16.269 7.72146 16.6398 8.10626 17.1086 8.11326H17.1155C17.5773 8.11326 17.9481 7.74245 17.9551 7.28069C17.9621 6.82592 17.5913 6.44111 17.1225 6.43412Z" fill="#404764" />
            <path d="M17.1435 4.8949C17.1435 4.8949 17.1505 4.8949 17.1575 4.8949C17.6193 4.8949 17.9901 4.5241 17.9971 4.06233C18.0041 3.60057 17.6333 3.21577 17.1645 3.21577C16.7028 3.20877 16.318 3.57958 16.318 4.04134C16.311 4.5101 16.6818 4.88791 17.1435 4.8949Z" fill="#404764" />
            <path d="M17.0456 12.8778C16.5838 12.8708 16.199 13.2417 16.199 13.7034C16.192 14.1652 16.5628 14.55 17.0316 14.557H17.0386C17.5004 14.557 17.8712 14.1862 17.8782 13.7244C17.8782 13.2626 17.5074 12.8848 17.0456 12.8778Z" fill="#404764" />
        </g>
        <defs>
            <clipPath id="clip0_79_1475">
                <rect width="34" height="34" fill="white" />
            </clipPath>
        </defs>
    </symbol>
    <use href="#light1" x="20" y="290" />

    <symbol id="lightNone">
        <g clip-path="url(#clip0_79_1363)">
            <path d="M31.4652 8.33715L17.6193 0.116361C17.3604 -0.03756 17.0386 -0.03756 16.7797 0.109365L2.74491 7.98733C2.48604 8.13426 2.31813 8.40712 2.31813 8.70796L2.12223 24.8067C2.11523 25.1076 2.27615 25.3804 2.52802 25.5343L16.4439 33.8811C16.5768 33.958 16.7238 34 16.8777 34C17.0176 34 17.1575 33.965 17.2905 33.8951L31.3323 26.0171C31.5981 25.8702 31.7591 25.5903 31.7591 25.2895L31.878 9.06478C31.878 8.76393 31.7241 8.48408 31.4652 8.33715ZM16.157 31.7542L3.80137 24.345L3.97628 10.2262L16.157 17.4185V31.7542ZM17.0106 15.9702L4.79486 8.76393L17.1785 1.80949L29.3803 9.05079L17.0106 15.9702ZM30.0799 24.7857L17.8362 31.6562V17.4255L30.1849 10.52L30.0799 24.7857Z" fill="#404764" />
            <path d="M11.3785 20.9237C11.5184 20.9237 11.6583 20.8887 11.7913 20.8188C12.1971 20.5879 12.337 20.0771 12.1131 19.6783C11.8892 19.2725 11.3785 19.1326 10.9727 19.3565C10.5669 19.5804 10.427 20.0911 10.6509 20.4969C10.8048 20.7698 11.0846 20.9237 11.3785 20.9237Z" fill="#404764" />
            <path d="M8.57293 22.5049C8.71286 22.5049 8.85278 22.4699 8.98572 22.4C9.39151 22.1761 9.53144 21.6583 9.30755 21.2595C9.08367 20.8538 8.56593 20.7138 8.16714 20.9377C7.76134 21.1616 7.62142 21.6793 7.8453 22.0781C7.99223 22.351 8.27908 22.5049 8.57293 22.5049Z" fill="#404764" />
            <path d="M14.191 19.3495C14.331 19.3495 14.4709 19.3145 14.6038 19.2446C15.0096 19.0207 15.1496 18.5029 14.9257 18.1041C14.7018 17.6984 14.1841 17.5584 13.7853 17.7823C13.3795 18.0062 13.2395 18.5239 13.4634 18.9227C13.6103 19.1956 13.8972 19.3495 14.191 19.3495Z" fill="#404764" />
            <path d="M5.76736 24.0791C5.90728 24.0791 6.04721 24.0441 6.18014 23.9741C6.58594 23.7433 6.72586 23.2325 6.50198 22.8337C6.2711 22.4279 5.76036 22.288 5.36156 22.5119C4.95577 22.7358 4.81584 23.2535 5.03973 23.6523C5.18665 23.9252 5.47351 24.0791 5.76736 24.0791Z" fill="#404764" />
            <path d="M24.8746 22.5889C25.0075 22.6658 25.1544 22.7078 25.3014 22.7078C25.5882 22.7078 25.8681 22.5609 26.022 22.295C26.2599 21.8962 26.1269 21.3785 25.7281 21.1476C25.3293 20.9097 24.8116 21.0426 24.5737 21.4414C24.3429 21.8402 24.4758 22.351 24.8746 22.5889Z" fill="#404764" />
            <path d="M22.104 20.9447C22.2369 21.0217 22.3839 21.0636 22.5308 21.0636C22.8176 21.0636 23.0975 20.9167 23.2514 20.6508C23.4893 20.252 23.3564 19.7343 22.9576 19.5034C22.5588 19.2655 22.041 19.3985 21.8101 19.7973C21.5793 20.1961 21.7052 20.7068 22.104 20.9447Z" fill="#404764" />
            <path d="M19.3404 19.3005C19.4733 19.3775 19.6203 19.4195 19.7672 19.4195C20.054 19.4195 20.3339 19.2726 20.4878 19.0067C20.7257 18.6079 20.5928 18.0902 20.194 17.8593C19.7952 17.6214 19.2774 17.7543 19.0466 18.1531C18.8087 18.5519 18.9416 19.0627 19.3404 19.3005Z" fill="#404764" />
            <path d="M27.6452 24.233C27.7781 24.31 27.925 24.352 28.0719 24.352C28.3588 24.352 28.6387 24.205 28.7926 23.9392C29.0305 23.5404 28.8975 23.0226 28.4987 22.7848C28.0999 22.5469 27.5822 22.6798 27.3513 23.0786C27.1134 23.4774 27.2464 23.9951 27.6452 24.233Z" fill="#404764" />
            <path d="M17.0876 9.65948C16.6258 9.65248 16.241 10.0233 16.241 10.492C16.234 10.9538 16.6048 11.3386 17.0666 11.3386C17.0666 11.3386 17.0736 11.3386 17.0806 11.3386C17.5423 11.3386 17.9131 10.9678 17.9201 10.506C17.9201 10.0443 17.5493 9.65948 17.0876 9.65948Z" fill="#404764" />
            <path d="M17.1225 6.43412C16.6608 6.42712 16.276 6.79793 16.276 7.2597C16.269 7.72146 16.6398 8.10626 17.1086 8.11326H17.1155C17.5773 8.11326 17.9481 7.74245 17.9551 7.28069C17.9621 6.82592 17.5913 6.44111 17.1225 6.43412Z" fill="#404764" />
            <path d="M17.1435 4.8949C17.1435 4.8949 17.1505 4.8949 17.1575 4.8949C17.6193 4.8949 17.9901 4.5241 17.9971 4.06233C18.0041 3.60057 17.6333 3.21577 17.1645 3.21577C16.7028 3.20877 16.318 3.57958 16.318 4.04134C16.311 4.5101 16.6818 4.88791 17.1435 4.8949Z" fill="#404764" />
            <path d="M17.0456 12.8778C16.5838 12.8708 16.199 13.2416 16.199 13.7034C16.192 14.1652 16.5628 14.55 17.0316 14.557H17.0386C17.5004 14.557 17.8712 14.1862 17.8782 13.7244C17.8782 13.2626 17.5074 12.8848 17.0456 12.8778Z" fill="#404764" />
        </g>
        <defs>
            <clipPath id="clip0_79_1363">
                <rect width="34" height="34" fill="white" />
            </clipPath>
        </defs>
    </symbol>
    <use href="#lightNone" x="20" y="344" />

    <symbol id="dark0">
        <g clip-path="url(#clip0_80_1651)">
            <path d="M3.31786 24.6594V9.65936L16.3179 16.6594V32.6594L3.31786 24.6594Z" fill="#ABB2CF" fill-opacity="0.32" />
            <path d="M31.4652 8.33715L17.6193 0.116361C17.3604 -0.03756 17.0386 -0.03756 16.7797 0.109365L2.74491 7.98733C2.48604 8.13426 2.31813 8.40712 2.31813 8.70796L2.12223 24.8067C2.11523 25.1076 2.27615 25.3804 2.52802 25.5343L16.4439 33.8811C16.5768 33.958 16.7238 34 16.8777 34C17.0176 34 17.1575 33.965 17.2905 33.8951L31.3323 26.0171C31.5981 25.8702 31.7591 25.5903 31.7591 25.2895L31.878 9.06478C31.878 8.76393 31.7241 8.48408 31.4652 8.33715ZM16.157 31.7542L3.80137 24.345L3.97628 10.2262L16.157 17.4185V31.7542ZM17.0106 15.9702L4.79486 8.76393L17.1785 1.80949L29.3803 9.05079L17.0106 15.9702ZM30.0799 24.7857L17.8362 31.6562V17.4255L30.1849 10.52L30.0799 24.7857Z" fill="#ABB2CF" />
            <path d="M11.3785 20.9237C11.5184 20.9237 11.6584 20.8887 11.7913 20.8188C12.1971 20.5879 12.337 20.0771 12.1131 19.6783C11.8892 19.2725 11.3785 19.1326 10.9727 19.3565C10.5669 19.5804 10.427 20.0911 10.6509 20.4969C10.8048 20.7698 11.0847 20.9237 11.3785 20.9237Z" fill="#ABB2CF" />
            <path d="M8.57293 22.5049C8.71286 22.5049 8.85278 22.4699 8.98572 22.4C9.39151 22.1761 9.53144 21.6583 9.30755 21.2595C9.08367 20.8538 8.56593 20.7138 8.16714 20.9377C7.76134 21.1616 7.62142 21.6793 7.8453 22.0781C7.99223 22.351 8.27908 22.5049 8.57293 22.5049Z" fill="#ABB2CF" />
            <path d="M14.1911 19.3495C14.331 19.3495 14.4709 19.3145 14.6039 19.2446C15.0096 19.0207 15.1496 18.5029 14.9257 18.1041C14.7018 17.6984 14.1841 17.5584 13.7853 17.7823C13.3795 18.0062 13.2395 18.5239 13.4634 18.9227C13.6104 19.1956 13.8972 19.3495 14.1911 19.3495Z" fill="#ABB2CF" />
            <path d="M5.76736 24.0791C5.90728 24.0791 6.04721 24.0441 6.18014 23.9741C6.58594 23.7433 6.72586 23.2325 6.50198 22.8337C6.2711 22.4279 5.76036 22.288 5.36156 22.5119C4.95577 22.7358 4.81584 23.2535 5.03973 23.6523C5.18665 23.9252 5.47351 24.0791 5.76736 24.0791Z" fill="#ABB2CF" />
            <path d="M24.8746 22.5889C25.0075 22.6658 25.1545 22.7078 25.3014 22.7078C25.5882 22.7078 25.8681 22.5609 26.022 22.295C26.2599 21.8962 26.127 21.3785 25.7282 21.1476C25.3294 20.9097 24.8116 21.0426 24.5738 21.4414C24.3429 21.8402 24.4758 22.351 24.8746 22.5889Z" fill="#ABB2CF" />
            <path d="M22.104 20.9447C22.2369 21.0217 22.3838 21.0636 22.5308 21.0636C22.8176 21.0636 23.0975 20.9167 23.2514 20.6508C23.4893 20.252 23.3563 19.7343 22.9575 19.5034C22.5587 19.2655 22.041 19.3985 21.8101 19.7973C21.5793 20.1961 21.7052 20.7068 22.104 20.9447Z" fill="#ABB2CF" />
            <path d="M19.3404 19.3005C19.4734 19.3775 19.6203 19.4195 19.7672 19.4195C20.0541 19.4195 20.3339 19.2726 20.4878 19.0067C20.7257 18.6079 20.5928 18.0902 20.194 17.8593C19.7952 17.6214 19.2775 17.7543 19.0466 18.1531C18.8087 18.5519 18.9416 19.0627 19.3404 19.3005Z" fill="#ABB2CF" />
            <path d="M27.6452 24.233C27.7781 24.31 27.925 24.352 28.072 24.352C28.3588 24.352 28.6387 24.205 28.7926 23.9392C29.0305 23.5404 28.8975 23.0226 28.4987 22.7848C28.0999 22.5469 27.5822 22.6798 27.3513 23.0786C27.1135 23.4774 27.2464 23.9951 27.6452 24.233Z" fill="#ABB2CF" />
            <path d="M17.0876 9.65948C16.6258 9.65248 16.241 10.0233 16.241 10.492C16.234 10.9538 16.6048 11.3386 17.0666 11.3386C17.0666 11.3386 17.0736 11.3386 17.0806 11.3386C17.5423 11.3386 17.9131 10.9678 17.9201 10.506C17.9201 10.0443 17.5493 9.65948 17.0876 9.65948Z" fill="#ABB2CF" />
            <path d="M17.1225 6.43412C16.6608 6.42712 16.276 6.79793 16.276 7.2597C16.269 7.72146 16.6398 8.10626 17.1086 8.11326H17.1155C17.5773 8.11326 17.9481 7.74245 17.9551 7.28069C17.9621 6.82592 17.5913 6.44111 17.1225 6.43412Z" fill="#ABB2CF" />
            <path d="M17.1435 4.8949C17.1435 4.8949 17.1505 4.8949 17.1575 4.8949C17.6193 4.8949 17.9901 4.5241 17.9971 4.06233C18.0041 3.60057 17.6333 3.21577 17.1645 3.21577C16.7028 3.20877 16.318 3.57958 16.318 4.04134C16.311 4.5101 16.6818 4.88791 17.1435 4.8949Z" fill="#ABB2CF" />
            <path d="M17.0456 12.8778C16.5838 12.8708 16.199 13.2416 16.199 13.7034C16.192 14.1652 16.5628 14.55 17.0316 14.557H17.0386C17.5003 14.557 17.8712 14.1862 17.8782 13.7244C17.8782 13.2626 17.5073 12.8848 17.0456 12.8778Z" fill="#ABB2CF" />
        </g>
        <defs>
            <clipPath id="clip0_80_1651">
                <rect width="34" height="34" fill="white" />
            </clipPath>
        </defs>
    </symbol>
    <use href="#dark0" x="76" y="20" />

    <symbol id="dark2">
        <g clip-path="url(#clip0_80_1673)">
            <path d="M30.4987 24.6594V9.65936L17.4987 16.6594V32.6594L30.4987 24.6594Z" fill="#ABB2CF" fill-opacity="0.32" />
            <path d="M31.4652 8.33715L17.6193 0.116361C17.3604 -0.03756 17.0386 -0.03756 16.7797 0.109365L2.74491 7.98733C2.48604 8.13426 2.31813 8.40712 2.31813 8.70796L2.12223 24.8067C2.11523 25.1076 2.27615 25.3804 2.52802 25.5343L16.4439 33.8811C16.5768 33.958 16.7238 34 16.8777 34C17.0176 34 17.1575 33.965 17.2905 33.8951L31.3323 26.0171C31.5981 25.8702 31.7591 25.5903 31.7591 25.2895L31.878 9.06478C31.878 8.76393 31.7241 8.48408 31.4652 8.33715ZM16.157 31.7542L3.80137 24.345L3.97628 10.2262L16.157 17.4185V31.7542ZM17.0106 15.9702L4.79486 8.76393L17.1785 1.80949L29.3803 9.05079L17.0106 15.9702ZM30.0799 24.7857L17.8362 31.6562V17.4255L30.1849 10.52L30.0799 24.7857Z" fill="#ABB2CF" />
            <path d="M11.3785 20.9237C11.5184 20.9237 11.6584 20.8887 11.7913 20.8188C12.1971 20.5879 12.337 20.0771 12.1131 19.6783C11.8892 19.2725 11.3785 19.1326 10.9727 19.3565C10.5669 19.5804 10.427 20.0911 10.6509 20.4969C10.8048 20.7698 11.0847 20.9237 11.3785 20.9237Z" fill="#ABB2CF" />
            <path d="M8.57293 22.5049C8.71286 22.5049 8.85278 22.4699 8.98572 22.4C9.39151 22.1761 9.53144 21.6583 9.30755 21.2595C9.08367 20.8538 8.56593 20.7138 8.16714 20.9377C7.76134 21.1616 7.62142 21.6793 7.8453 22.0781C7.99223 22.351 8.27908 22.5049 8.57293 22.5049Z" fill="#ABB2CF" />
            <path d="M14.1911 19.3495C14.331 19.3495 14.4709 19.3145 14.6039 19.2446C15.0096 19.0207 15.1496 18.5029 14.9257 18.1041C14.7018 17.6984 14.1841 17.5584 13.7853 17.7823C13.3795 18.0062 13.2395 18.5239 13.4634 18.9227C13.6104 19.1956 13.8972 19.3495 14.1911 19.3495Z" fill="#ABB2CF" />
            <path d="M5.76736 24.0791C5.90728 24.0791 6.04721 24.0441 6.18014 23.9741C6.58594 23.7433 6.72586 23.2325 6.50198 22.8337C6.2711 22.4279 5.76036 22.288 5.36156 22.5119C4.95577 22.7358 4.81584 23.2535 5.03973 23.6523C5.18665 23.9252 5.47351 24.0791 5.76736 24.0791Z" fill="#ABB2CF" />
            <path d="M24.8746 22.5889C25.0075 22.6658 25.1545 22.7078 25.3014 22.7078C25.5882 22.7078 25.8681 22.5609 26.022 22.295C26.2599 21.8962 26.127 21.3785 25.7282 21.1476C25.3294 20.9097 24.8116 21.0426 24.5738 21.4414C24.3429 21.8402 24.4758 22.351 24.8746 22.5889Z" fill="#ABB2CF" />
            <path d="M22.104 20.9447C22.2369 21.0217 22.3838 21.0636 22.5308 21.0636C22.8176 21.0636 23.0975 20.9167 23.2514 20.6508C23.4893 20.252 23.3563 19.7343 22.9575 19.5034C22.5587 19.2655 22.041 19.3985 21.8101 19.7973C21.5793 20.1961 21.7052 20.7068 22.104 20.9447Z" fill="#ABB2CF" />
            <path d="M19.3404 19.3005C19.4734 19.3775 19.6203 19.4195 19.7672 19.4195C20.0541 19.4195 20.3339 19.2725 20.4878 19.0067C20.7257 18.6079 20.5928 18.0901 20.194 17.8593C19.7952 17.6214 19.2775 17.7543 19.0466 18.1531C18.8087 18.5519 18.9416 19.0626 19.3404 19.3005Z" fill="#ABB2CF" />
            <path d="M27.6452 24.233C27.7781 24.31 27.925 24.3519 28.072 24.3519C28.3588 24.3519 28.6387 24.205 28.7926 23.9391C29.0305 23.5404 28.8975 23.0226 28.4987 22.7847C28.0999 22.5469 27.5822 22.6798 27.3513 23.0786C27.1135 23.4774 27.2464 23.9951 27.6452 24.233Z" fill="#ABB2CF" />
            <path d="M17.0876 9.65946C16.6258 9.65246 16.241 10.0233 16.241 10.492C16.234 10.9538 16.6048 11.3386 17.0666 11.3386C17.0666 11.3386 17.0736 11.3386 17.0806 11.3386C17.5423 11.3386 17.9131 10.9678 17.9201 10.506C17.9201 10.0443 17.5493 9.65946 17.0876 9.65946Z" fill="#ABB2CF" />
            <path d="M17.1225 6.43412C16.6608 6.42712 16.276 6.79793 16.276 7.2597C16.269 7.72146 16.6398 8.10626 17.1086 8.11326H17.1155C17.5773 8.11326 17.9481 7.74245 17.9551 7.28069C17.9621 6.82592 17.5913 6.44111 17.1225 6.43412Z" fill="#ABB2CF" />
            <path d="M17.1435 4.8949C17.1435 4.8949 17.1505 4.8949 17.1575 4.8949C17.6193 4.8949 17.9901 4.5241 17.9971 4.06233C18.0041 3.60057 17.6333 3.21577 17.1645 3.21577C16.7028 3.20877 16.318 3.57958 16.318 4.04134C16.311 4.5101 16.6818 4.88791 17.1435 4.8949Z" fill="#ABB2CF" />
            <path d="M17.0456 12.8778C16.5838 12.8708 16.199 13.2417 16.199 13.7034C16.192 14.1652 16.5628 14.55 17.0316 14.557H17.0386C17.5003 14.557 17.8712 14.1862 17.8782 13.7244C17.8782 13.2626 17.5073 12.8848 17.0456 12.8778Z" fill="#ABB2CF" />
        </g>
        <defs>
            <clipPath id="clip0_80_1673">
                <rect width="34" height="34" fill="white" />
            </clipPath>
        </defs>
    </symbol>
    <use href="#dark2" x="76" y="74" />

    <symbol id="dark4">
        <g clip-path="url(#clip0_80_1695)">
            <path d="M17.1575 16.8082V1.8082L30.1575 8.8082V24.8082L17.1575 16.8082Z" fill="#ABB2CF" fill-opacity="0.32" />
            <path d="M31.4652 8.33715L17.6193 0.116361C17.3604 -0.03756 17.0386 -0.03756 16.7797 0.109365L2.74491 7.98733C2.48604 8.13426 2.31813 8.40712 2.31813 8.70796L2.12223 24.8067C2.11523 25.1076 2.27615 25.3804 2.52802 25.5343L16.4439 33.8811C16.5768 33.958 16.7238 34 16.8777 34C17.0176 34 17.1575 33.965 17.2905 33.8951L31.3323 26.0171C31.5981 25.8702 31.7591 25.5903 31.7591 25.2895L31.878 9.06478C31.878 8.76393 31.7241 8.48408 31.4652 8.33715ZM16.157 31.7542L3.80137 24.345L3.97628 10.2262L16.157 17.4185V31.7542ZM17.0106 15.9702L4.79486 8.76393L17.1785 1.80949L29.3803 9.05079L17.0106 15.9702ZM30.0799 24.7857L17.8362 31.6562V17.4255L30.1849 10.52L30.0799 24.7857Z" fill="#ABB2CF" />
            <path d="M11.3785 20.9237C11.5184 20.9237 11.6584 20.8887 11.7913 20.8188C12.1971 20.5879 12.337 20.0771 12.1131 19.6783C11.8892 19.2725 11.3785 19.1326 10.9727 19.3565C10.5669 19.5804 10.427 20.0911 10.6509 20.4969C10.8048 20.7698 11.0847 20.9237 11.3785 20.9237Z" fill="#ABB2CF" />
            <path d="M8.57293 22.5049C8.71286 22.5049 8.85278 22.4699 8.98572 22.4C9.39151 22.1761 9.53144 21.6583 9.30755 21.2595C9.08367 20.8538 8.56593 20.7138 8.16714 20.9377C7.76134 21.1616 7.62142 21.6793 7.8453 22.0781C7.99223 22.351 8.27908 22.5049 8.57293 22.5049Z" fill="#ABB2CF" />
            <path d="M14.1911 19.3495C14.331 19.3495 14.4709 19.3145 14.6039 19.2446C15.0096 19.0207 15.1496 18.5029 14.9257 18.1041C14.7018 17.6984 14.1841 17.5584 13.7853 17.7823C13.3795 18.0062 13.2395 18.5239 13.4634 18.9227C13.6104 19.1956 13.8972 19.3495 14.1911 19.3495Z" fill="#ABB2CF" />
            <path d="M5.76736 24.0791C5.90728 24.0791 6.04721 24.0441 6.18014 23.9741C6.58594 23.7433 6.72586 23.2325 6.50198 22.8337C6.2711 22.4279 5.76036 22.288 5.36156 22.5119C4.95577 22.7358 4.81584 23.2535 5.03973 23.6523C5.18665 23.9252 5.47351 24.0791 5.76736 24.0791Z" fill="#ABB2CF" />
            <path d="M24.8746 22.5889C25.0075 22.6658 25.1545 22.7078 25.3014 22.7078C25.5882 22.7078 25.8681 22.5609 26.022 22.295C26.2599 21.8962 26.127 21.3785 25.7282 21.1476C25.3294 20.9097 24.8116 21.0426 24.5738 21.4414C24.3429 21.8402 24.4758 22.351 24.8746 22.5889Z" fill="#ABB2CF" />
            <path d="M22.104 20.9447C22.2369 21.0217 22.3838 21.0636 22.5308 21.0636C22.8176 21.0636 23.0975 20.9167 23.2514 20.6508C23.4893 20.252 23.3563 19.7343 22.9575 19.5034C22.5587 19.2655 22.041 19.3985 21.8101 19.7973C21.5793 20.1961 21.7052 20.7068 22.104 20.9447Z" fill="#ABB2CF" />
            <path d="M19.3404 19.3005C19.4734 19.3775 19.6203 19.4195 19.7672 19.4195C20.0541 19.4195 20.3339 19.2725 20.4878 19.0067C20.7257 18.6079 20.5928 18.0901 20.194 17.8593C19.7952 17.6214 19.2775 17.7543 19.0466 18.1531C18.8087 18.5519 18.9416 19.0626 19.3404 19.3005Z" fill="#ABB2CF" />
            <path d="M27.6452 24.233C27.7781 24.31 27.925 24.3519 28.072 24.3519C28.3588 24.3519 28.6387 24.205 28.7926 23.9391C29.0305 23.5404 28.8975 23.0226 28.4987 22.7847C28.0999 22.5469 27.5822 22.6798 27.3513 23.0786C27.1135 23.4774 27.2464 23.9951 27.6452 24.233Z" fill="#ABB2CF" />
            <path d="M17.0876 9.65946C16.6258 9.65246 16.241 10.0233 16.241 10.492C16.234 10.9538 16.6048 11.3386 17.0666 11.3386C17.0666 11.3386 17.0736 11.3386 17.0806 11.3386C17.5423 11.3386 17.9131 10.9678 17.9201 10.506C17.9201 10.0443 17.5493 9.65946 17.0876 9.65946Z" fill="#ABB2CF" />
            <path d="M17.1225 6.43412C16.6608 6.42712 16.276 6.79793 16.276 7.2597C16.269 7.72146 16.6398 8.10626 17.1086 8.11326H17.1155C17.5773 8.11326 17.9481 7.74245 17.9551 7.28069C17.9621 6.82592 17.5913 6.44111 17.1225 6.43412Z" fill="#ABB2CF" />
            <path d="M17.1435 4.8949C17.1435 4.8949 17.1505 4.8949 17.1575 4.8949C17.6193 4.8949 17.9901 4.5241 17.9971 4.06233C18.0041 3.60057 17.6333 3.21577 17.1645 3.21577C16.7028 3.20877 16.318 3.57958 16.318 4.04134C16.311 4.5101 16.6818 4.88791 17.1435 4.8949Z" fill="#ABB2CF" />
            <path d="M17.0456 12.8778C16.5838 12.8708 16.199 13.2417 16.199 13.7034C16.192 14.1652 16.5628 14.55 17.0316 14.557H17.0386C17.5003 14.557 17.8712 14.1862 17.8782 13.7244C17.8782 13.2626 17.5073 12.8848 17.0456 12.8778Z" fill="#ABB2CF" />
        </g>
        <defs>
            <clipPath id="clip0_80_1695">
                <rect width="34" height="34" fill="white" />
            </clipPath>
        </defs>
    </symbol>
    <use href="#dark4" x="76" y="128" />

    <symbol id="dark5">
        <g clip-path="url(#clip0_80_1717)">
            <path d="M16.6706 16.8703V1.8703L3.67062 8.8703V24.8703L16.6706 16.8703Z" fill="#ABB2CF" fill-opacity="0.32" />
            <path d="M31.4652 8.33715L17.6193 0.116361C17.3604 -0.03756 17.0386 -0.03756 16.7797 0.109365L2.74491 7.98733C2.48604 8.13426 2.31813 8.40712 2.31813 8.70796L2.12223 24.8067C2.11523 25.1076 2.27615 25.3804 2.52802 25.5343L16.4439 33.8811C16.5768 33.958 16.7238 34 16.8777 34C17.0176 34 17.1575 33.965 17.2905 33.8951L31.3323 26.0171C31.5981 25.8702 31.7591 25.5903 31.7591 25.2895L31.878 9.06478C31.878 8.76393 31.7241 8.48408 31.4652 8.33715ZM16.157 31.7542L3.80137 24.345L3.97628 10.2262L16.157 17.4185V31.7542ZM17.0106 15.9702L4.79486 8.76393L17.1785 1.80949L29.3803 9.05079L17.0106 15.9702ZM30.0799 24.7857L17.8362 31.6562V17.4255L30.1849 10.52L30.0799 24.7857Z" fill="#ABB2CF" />
            <path d="M11.3785 20.9237C11.5184 20.9237 11.6584 20.8887 11.7913 20.8188C12.1971 20.5879 12.337 20.0771 12.1131 19.6783C11.8892 19.2725 11.3785 19.1326 10.9727 19.3565C10.5669 19.5804 10.427 20.0911 10.6509 20.4969C10.8048 20.7698 11.0847 20.9237 11.3785 20.9237Z" fill="#ABB2CF" />
            <path d="M8.57293 22.5049C8.71286 22.5049 8.85278 22.4699 8.98572 22.4C9.39151 22.1761 9.53144 21.6583 9.30755 21.2595C9.08367 20.8538 8.56593 20.7138 8.16714 20.9377C7.76134 21.1616 7.62142 21.6793 7.8453 22.0781C7.99223 22.351 8.27908 22.5049 8.57293 22.5049Z" fill="#ABB2CF" />
            <path d="M14.1911 19.3495C14.331 19.3495 14.4709 19.3145 14.6039 19.2446C15.0096 19.0207 15.1496 18.5029 14.9257 18.1041C14.7018 17.6984 14.1841 17.5584 13.7853 17.7823C13.3795 18.0062 13.2395 18.5239 13.4634 18.9227C13.6104 19.1956 13.8972 19.3495 14.1911 19.3495Z" fill="#ABB2CF" />
            <path d="M5.76736 24.0791C5.90728 24.0791 6.04721 24.0441 6.18014 23.9741C6.58594 23.7433 6.72586 23.2325 6.50198 22.8337C6.2711 22.4279 5.76036 22.288 5.36156 22.5119C4.95577 22.7358 4.81584 23.2535 5.03973 23.6523C5.18665 23.9252 5.47351 24.0791 5.76736 24.0791Z" fill="#ABB2CF" />
            <path d="M24.8746 22.5889C25.0075 22.6658 25.1545 22.7078 25.3014 22.7078C25.5882 22.7078 25.8681 22.5609 26.022 22.295C26.2599 21.8962 26.127 21.3785 25.7282 21.1476C25.3294 20.9097 24.8116 21.0426 24.5738 21.4414C24.3429 21.8402 24.4758 22.351 24.8746 22.5889Z" fill="#ABB2CF" />
            <path d="M22.104 20.9447C22.2369 21.0217 22.3838 21.0636 22.5308 21.0636C22.8176 21.0636 23.0975 20.9167 23.2514 20.6508C23.4893 20.252 23.3563 19.7343 22.9575 19.5034C22.5587 19.2655 22.041 19.3985 21.8101 19.7973C21.5793 20.1961 21.7052 20.7068 22.104 20.9447Z" fill="#ABB2CF" />
            <path d="M19.3404 19.3005C19.4734 19.3775 19.6203 19.4195 19.7672 19.4195C20.0541 19.4195 20.3339 19.2725 20.4878 19.0067C20.7257 18.6079 20.5928 18.0901 20.194 17.8593C19.7952 17.6214 19.2775 17.7543 19.0466 18.1531C18.8087 18.5519 18.9416 19.0626 19.3404 19.3005Z" fill="#ABB2CF" />
            <path d="M27.6452 24.233C27.7781 24.31 27.925 24.3519 28.072 24.3519C28.3588 24.3519 28.6387 24.205 28.7926 23.9391C29.0305 23.5404 28.8975 23.0226 28.4987 22.7847C28.0999 22.5469 27.5822 22.6798 27.3513 23.0786C27.1135 23.4774 27.2464 23.9951 27.6452 24.233Z" fill="#ABB2CF" />
            <path d="M17.0876 9.65946C16.6258 9.65246 16.241 10.0233 16.241 10.492C16.234 10.9538 16.6048 11.3386 17.0666 11.3386C17.0666 11.3386 17.0736 11.3386 17.0806 11.3386C17.5423 11.3386 17.9131 10.9678 17.9201 10.506C17.9201 10.0443 17.5493 9.65946 17.0876 9.65946Z" fill="#ABB2CF" />
            <path d="M17.1225 6.43412C16.6608 6.42712 16.276 6.79793 16.276 7.2597C16.269 7.72146 16.6398 8.10626 17.1086 8.11326H17.1155C17.5773 8.11326 17.9481 7.74245 17.9551 7.28069C17.9621 6.82592 17.5913 6.44111 17.1225 6.43412Z" fill="#ABB2CF" />
            <path d="M17.1435 4.8949C17.1435 4.8949 17.1505 4.8949 17.1575 4.8949C17.6193 4.8949 17.9901 4.5241 17.9971 4.06233C18.0041 3.60057 17.6333 3.21577 17.1645 3.21577C16.7028 3.20877 16.318 3.57958 16.318 4.04134C16.311 4.5101 16.6818 4.88791 17.1435 4.8949Z" fill="#ABB2CF" />
            <path d="M17.0456 12.8778C16.5838 12.8708 16.199 13.2417 16.199 13.7034C16.192 14.1652 16.5628 14.55 17.0316 14.557H17.0386C17.5003 14.557 17.8712 14.1862 17.8782 13.7244C17.8782 13.2626 17.5073 12.8848 17.0456 12.8778Z" fill="#ABB2CF" />
        </g>
        <defs>
            <clipPath id="clip0_80_1717">
                <rect width="34" height="34" fill="white" />
            </clipPath>
        </defs>
    </symbol>
    <use href="#dark5" x="76" y="182" />

    <symbol id="dark3">
        <g clip-path="url(#clip0_80_1739)">
            <path d="M3.60399 8.56986L17.1762 0.901276L30.7483 8.87417L17.1762 16.9688L3.60399 8.56986Z" fill="#ABB2CF" fill-opacity="0.32" />
            <path d="M31.4652 8.33715L17.6193 0.116361C17.3604 -0.03756 17.0386 -0.03756 16.7797 0.109365L2.74491 7.98733C2.48604 8.13426 2.31813 8.40712 2.31813 8.70796L2.12223 24.8067C2.11523 25.1076 2.27615 25.3804 2.52802 25.5343L16.4439 33.8811C16.5768 33.958 16.7238 34 16.8777 34C17.0176 34 17.1575 33.965 17.2905 33.8951L31.3323 26.0171C31.5981 25.8702 31.7591 25.5903 31.7591 25.2895L31.878 9.06478C31.878 8.76393 31.7241 8.48408 31.4652 8.33715ZM16.157 31.7542L3.80137 24.345L3.97628 10.2262L16.157 17.4185V31.7542ZM17.0106 15.9702L4.79486 8.76393L17.1785 1.80949L29.3803 9.05079L17.0106 15.9702ZM30.0799 24.7857L17.8362 31.6562V17.4255L30.1849 10.52L30.0799 24.7857Z" fill="#ABB2CF" />
            <path d="M11.3785 20.9237C11.5184 20.9237 11.6584 20.8887 11.7913 20.8188C12.1971 20.5879 12.337 20.0771 12.1131 19.6783C11.8892 19.2725 11.3785 19.1326 10.9727 19.3565C10.5669 19.5804 10.427 20.0911 10.6509 20.4969C10.8048 20.7698 11.0847 20.9237 11.3785 20.9237Z" fill="#ABB2CF" />
            <path d="M8.57293 22.5049C8.71286 22.5049 8.85278 22.4699 8.98572 22.4C9.39151 22.1761 9.53144 21.6583 9.30755 21.2595C9.08367 20.8538 8.56593 20.7138 8.16714 20.9377C7.76134 21.1616 7.62142 21.6793 7.8453 22.0781C7.99223 22.351 8.27908 22.5049 8.57293 22.5049Z" fill="#ABB2CF" />
            <path d="M14.1911 19.3495C14.331 19.3495 14.4709 19.3145 14.6039 19.2446C15.0096 19.0207 15.1496 18.5029 14.9257 18.1041C14.7018 17.6984 14.1841 17.5584 13.7853 17.7823C13.3795 18.0062 13.2395 18.5239 13.4634 18.9227C13.6104 19.1956 13.8972 19.3495 14.1911 19.3495Z" fill="#ABB2CF" />
            <path d="M5.76736 24.0791C5.90728 24.0791 6.04721 24.0441 6.18014 23.9741C6.58594 23.7433 6.72586 23.2325 6.50198 22.8337C6.2711 22.4279 5.76036 22.288 5.36156 22.5119C4.95577 22.7358 4.81584 23.2535 5.03973 23.6523C5.18665 23.9252 5.47351 24.0791 5.76736 24.0791Z" fill="#ABB2CF" />
            <path d="M24.8746 22.5889C25.0075 22.6658 25.1545 22.7078 25.3014 22.7078C25.5882 22.7078 25.8681 22.5609 26.022 22.295C26.2599 21.8962 26.127 21.3785 25.7282 21.1476C25.3294 20.9097 24.8116 21.0426 24.5738 21.4414C24.3429 21.8402 24.4758 22.351 24.8746 22.5889Z" fill="#ABB2CF" />
            <path d="M22.104 20.9447C22.2369 21.0217 22.3838 21.0636 22.5308 21.0636C22.8176 21.0636 23.0975 20.9167 23.2514 20.6508C23.4893 20.252 23.3563 19.7343 22.9575 19.5034C22.5587 19.2655 22.041 19.3985 21.8101 19.7973C21.5793 20.1961 21.7052 20.7068 22.104 20.9447Z" fill="#ABB2CF" />
            <path d="M19.3404 19.3005C19.4734 19.3775 19.6203 19.4195 19.7672 19.4195C20.0541 19.4195 20.3339 19.2725 20.4878 19.0067C20.7257 18.6079 20.5928 18.0901 20.194 17.8593C19.7952 17.6214 19.2775 17.7543 19.0466 18.1531C18.8087 18.5519 18.9416 19.0626 19.3404 19.3005Z" fill="#ABB2CF" />
            <path d="M27.6452 24.233C27.7781 24.31 27.925 24.3519 28.072 24.3519C28.3588 24.3519 28.6387 24.205 28.7926 23.9391C29.0305 23.5404 28.8975 23.0226 28.4987 22.7847C28.0999 22.5469 27.5822 22.6798 27.3513 23.0786C27.1135 23.4774 27.2464 23.9951 27.6452 24.233Z" fill="#ABB2CF" />
            <path d="M17.0876 9.65946C16.6258 9.65246 16.241 10.0233 16.241 10.492C16.234 10.9538 16.6048 11.3386 17.0666 11.3386C17.0666 11.3386 17.0736 11.3386 17.0806 11.3386C17.5423 11.3386 17.9131 10.9678 17.9201 10.506C17.9201 10.0443 17.5493 9.65946 17.0876 9.65946Z" fill="#ABB2CF" />
            <path d="M17.1225 6.43412C16.6608 6.42712 16.276 6.79793 16.276 7.2597C16.269 7.72146 16.6398 8.10626 17.1086 8.11326H17.1155C17.5773 8.11326 17.9481 7.74245 17.9551 7.28069C17.9621 6.82592 17.5913 6.44111 17.1225 6.43412Z" fill="#ABB2CF" />
            <path d="M17.1435 4.8949C17.1435 4.8949 17.1505 4.8949 17.1575 4.8949C17.6193 4.8949 17.9901 4.5241 17.9971 4.06233C18.0041 3.60057 17.6333 3.21577 17.1645 3.21577C16.7028 3.20877 16.318 3.57958 16.318 4.04134C16.311 4.5101 16.6818 4.88791 17.1435 4.8949Z" fill="#ABB2CF" />
            <path d="M17.0456 12.8778C16.5838 12.8708 16.199 13.2417 16.199 13.7034C16.192 14.1652 16.5628 14.55 17.0316 14.557H17.0386C17.5003 14.557 17.8712 14.1862 17.8782 13.7244C17.8782 13.2626 17.5073 12.8848 17.0456 12.8778Z" fill="#ABB2CF" />
        </g>
        <defs>
            <clipPath id="clip0_80_1739">
                <rect width="34" height="34" fill="white" />
            </clipPath>
        </defs>
    </symbol>
    <use href="#dark3" x="76" y="236" />

    <symbol id="dark1">
        <g clip-path="url(#clip0_80_1761)">
            <path d="M3.60399 24.6686L17.1762 17L30.7483 24.9729L17.1762 33.0675L3.60399 24.6686Z" fill="#ABB2CF" fill-opacity="0.32" />
            <path d="M31.4652 8.33715L17.6193 0.116361C17.3604 -0.03756 17.0386 -0.03756 16.7797 0.109365L2.74491 7.98733C2.48604 8.13426 2.31813 8.40712 2.31813 8.70796L2.12223 24.8067C2.11523 25.1076 2.27615 25.3804 2.52802 25.5343L16.4439 33.8811C16.5768 33.958 16.7238 34 16.8777 34C17.0176 34 17.1575 33.965 17.2905 33.8951L31.3323 26.0171C31.5981 25.8702 31.7591 25.5903 31.7591 25.2895L31.878 9.06478C31.878 8.76393 31.7241 8.48408 31.4652 8.33715ZM16.157 31.7542L3.80137 24.345L3.97628 10.2262L16.157 17.4185V31.7542ZM17.0106 15.9702L4.79486 8.76393L17.1785 1.80949L29.3803 9.05079L17.0106 15.9702ZM30.0799 24.7857L17.8362 31.6562V17.4255L30.1849 10.52L30.0799 24.7857Z" fill="#ABB2CF" />
            <path d="M11.3785 20.9237C11.5184 20.9237 11.6584 20.8887 11.7913 20.8188C12.1971 20.5879 12.337 20.0771 12.1131 19.6783C11.8892 19.2725 11.3785 19.1326 10.9727 19.3565C10.5669 19.5804 10.427 20.0911 10.6509 20.4969C10.8048 20.7698 11.0847 20.9237 11.3785 20.9237Z" fill="#ABB2CF" />
            <path d="M8.57293 22.5049C8.71286 22.5049 8.85278 22.4699 8.98572 22.3999C9.39151 22.176 9.53144 21.6583 9.30755 21.2595C9.08367 20.8537 8.56593 20.7138 8.16714 20.9377C7.76134 21.1616 7.62142 21.6793 7.8453 22.0781C7.99223 22.351 8.27908 22.5049 8.57293 22.5049Z" fill="#ABB2CF" />
            <path d="M14.1911 19.3495C14.331 19.3495 14.4709 19.3145 14.6039 19.2445C15.0096 19.0206 15.1496 18.5029 14.9257 18.1041C14.7018 17.6983 14.1841 17.5584 13.7853 17.7823C13.3795 18.0062 13.2395 18.5239 13.4634 18.9227C13.6104 19.1956 13.8972 19.3495 14.1911 19.3495Z" fill="#ABB2CF" />
            <path d="M5.76736 24.0791C5.90728 24.0791 6.04721 24.0441 6.18014 23.9741C6.58594 23.7433 6.72586 23.2325 6.50198 22.8337C6.2711 22.4279 5.76036 22.288 5.36156 22.5119C4.95577 22.7358 4.81584 23.2535 5.03973 23.6523C5.18665 23.9252 5.47351 24.0791 5.76736 24.0791Z" fill="#ABB2CF" />
            <path d="M24.8746 22.5889C25.0075 22.6658 25.1545 22.7078 25.3014 22.7078C25.5882 22.7078 25.8681 22.5609 26.022 22.295C26.2599 21.8962 26.127 21.3785 25.7282 21.1476C25.3294 20.9097 24.8116 21.0426 24.5738 21.4414C24.3429 21.8402 24.4758 22.351 24.8746 22.5889Z" fill="#ABB2CF" />
            <path d="M22.104 20.9447C22.2369 21.0217 22.3838 21.0636 22.5308 21.0636C22.8176 21.0636 23.0975 20.9167 23.2514 20.6508C23.4893 20.252 23.3563 19.7343 22.9575 19.5034C22.5587 19.2655 22.041 19.3985 21.8101 19.7973C21.5793 20.1961 21.7052 20.7068 22.104 20.9447Z" fill="#ABB2CF" />
            <path d="M19.3404 19.3005C19.4734 19.3775 19.6203 19.4195 19.7672 19.4195C20.0541 19.4195 20.3339 19.2725 20.4878 19.0067C20.7257 18.6079 20.5928 18.0901 20.194 17.8593C19.7952 17.6214 19.2775 17.7543 19.0466 18.1531C18.8087 18.5519 18.9416 19.0626 19.3404 19.3005Z" fill="#ABB2CF" />
            <path d="M27.6452 24.233C27.7781 24.31 27.925 24.3519 28.072 24.3519C28.3588 24.3519 28.6387 24.205 28.7926 23.9391C29.0305 23.5404 28.8975 23.0226 28.4987 22.7847C28.0999 22.5469 27.5822 22.6798 27.3513 23.0786C27.1135 23.4774 27.2464 23.9951 27.6452 24.233Z" fill="#ABB2CF" />
            <path d="M17.0876 9.65946C16.6258 9.65246 16.241 10.0233 16.241 10.492C16.234 10.9538 16.6048 11.3386 17.0666 11.3386C17.0666 11.3386 17.0736 11.3386 17.0806 11.3386C17.5423 11.3386 17.9131 10.9678 17.9201 10.506C17.9201 10.0443 17.5493 9.65946 17.0876 9.65946Z" fill="#ABB2CF" />
            <path d="M17.1225 6.43412C16.6608 6.42712 16.276 6.79793 16.276 7.2597C16.269 7.72146 16.6398 8.10626 17.1086 8.11326H17.1155C17.5773 8.11326 17.9481 7.74245 17.9551 7.28069C17.9621 6.82592 17.5913 6.44111 17.1225 6.43412Z" fill="#ABB2CF" />
            <path d="M17.1435 4.8949C17.1435 4.8949 17.1505 4.8949 17.1575 4.8949C17.6193 4.8949 17.9901 4.5241 17.9971 4.06233C18.0041 3.60057 17.6333 3.21577 17.1645 3.21577C16.7028 3.20877 16.318 3.57958 16.318 4.04134C16.311 4.5101 16.6818 4.88791 17.1435 4.8949Z" fill="#ABB2CF" />
            <path d="M17.0456 12.8778C16.5838 12.8708 16.199 13.2417 16.199 13.7034C16.192 14.1652 16.5628 14.55 17.0316 14.557H17.0386C17.5003 14.557 17.8712 14.1862 17.8782 13.7244C17.8782 13.2626 17.5073 12.8848 17.0456 12.8778Z" fill="#ABB2CF" />
        </g>
        <defs>
            <clipPath id="clip0_80_1761">
                <rect width="34" height="34" fill="white" />
            </clipPath>
        </defs>
    </symbol>
    <use href="#dark1" x="76" y="290" />

    <symbol id="darkNone">
        <g clip-path="url(#clip0_80_1629)">
            <path d="M31.4652 8.33715L17.6193 0.116361C17.3604 -0.03756 17.0386 -0.03756 16.7797 0.109365L2.74491 7.98733C2.48604 8.13426 2.31813 8.40712 2.31813 8.70796L2.12223 24.8067C2.11523 25.1076 2.27615 25.3804 2.52802 25.5343L16.4439 33.8811C16.5768 33.958 16.7238 34 16.8777 34C17.0176 34 17.1575 33.965 17.2905 33.8951L31.3323 26.0171C31.5981 25.8702 31.7591 25.5903 31.7591 25.2895L31.878 9.06478C31.878 8.76393 31.7241 8.48408 31.4652 8.33715ZM16.157 31.7542L3.80137 24.345L3.97628 10.2262L16.157 17.4185V31.7542ZM17.0106 15.9702L4.79486 8.76393L17.1785 1.80949L29.3803 9.05079L17.0106 15.9702ZM30.0799 24.7857L17.8362 31.6562V17.4255L30.1849 10.52L30.0799 24.7857Z" fill="#ABB2CF" />
            <path d="M11.3785 20.9237C11.5184 20.9237 11.6584 20.8887 11.7913 20.8188C12.1971 20.5879 12.337 20.0771 12.1131 19.6783C11.8892 19.2725 11.3785 19.1326 10.9727 19.3565C10.5669 19.5804 10.427 20.0911 10.6509 20.4969C10.8048 20.7698 11.0847 20.9237 11.3785 20.9237Z" fill="#ABB2CF" />
            <path d="M8.57293 22.5049C8.71286 22.5049 8.85278 22.4699 8.98572 22.4C9.39151 22.1761 9.53144 21.6583 9.30755 21.2595C9.08367 20.8538 8.56593 20.7138 8.16714 20.9377C7.76134 21.1616 7.62142 21.6793 7.8453 22.0781C7.99223 22.351 8.27908 22.5049 8.57293 22.5049Z" fill="#ABB2CF" />
            <path d="M14.1911 19.3495C14.331 19.3495 14.4709 19.3145 14.6039 19.2446C15.0096 19.0207 15.1496 18.5029 14.9257 18.1041C14.7018 17.6984 14.1841 17.5584 13.7853 17.7823C13.3795 18.0062 13.2395 18.5239 13.4634 18.9227C13.6104 19.1956 13.8972 19.3495 14.1911 19.3495Z" fill="#ABB2CF" />
            <path d="M5.76736 24.0791C5.90728 24.0791 6.04721 24.0441 6.18014 23.9741C6.58594 23.7433 6.72586 23.2325 6.50198 22.8337C6.2711 22.4279 5.76036 22.288 5.36156 22.5119C4.95577 22.7358 4.81584 23.2535 5.03973 23.6523C5.18665 23.9252 5.47351 24.0791 5.76736 24.0791Z" fill="#ABB2CF" />
            <path d="M24.8746 22.5889C25.0075 22.6658 25.1545 22.7078 25.3014 22.7078C25.5882 22.7078 25.8681 22.5609 26.022 22.295C26.2599 21.8962 26.127 21.3785 25.7282 21.1476C25.3294 20.9097 24.8116 21.0426 24.5738 21.4414C24.3429 21.8402 24.4758 22.351 24.8746 22.5889Z" fill="#ABB2CF" />
            <path d="M22.104 20.9447C22.2369 21.0217 22.3838 21.0636 22.5308 21.0636C22.8176 21.0636 23.0975 20.9167 23.2514 20.6508C23.4893 20.252 23.3563 19.7343 22.9575 19.5034C22.5587 19.2655 22.041 19.3985 21.8101 19.7973C21.5793 20.1961 21.7052 20.7068 22.104 20.9447Z" fill="#ABB2CF" />
            <path d="M19.3404 19.3005C19.4734 19.3775 19.6203 19.4195 19.7672 19.4195C20.0541 19.4195 20.3339 19.2726 20.4878 19.0067C20.7257 18.6079 20.5928 18.0902 20.194 17.8593C19.7952 17.6214 19.2775 17.7543 19.0466 18.1531C18.8087 18.5519 18.9416 19.0627 19.3404 19.3005Z" fill="#ABB2CF" />
            <path d="M27.6452 24.233C27.7781 24.31 27.925 24.352 28.072 24.352C28.3588 24.352 28.6387 24.205 28.7926 23.9392C29.0305 23.5404 28.8975 23.0226 28.4987 22.7848C28.0999 22.5469 27.5822 22.6798 27.3513 23.0786C27.1135 23.4774 27.2464 23.9951 27.6452 24.233Z" fill="#ABB2CF" />
            <path d="M17.0876 9.65948C16.6258 9.65248 16.241 10.0233 16.241 10.492C16.234 10.9538 16.6048 11.3386 17.0666 11.3386C17.0666 11.3386 17.0736 11.3386 17.0806 11.3386C17.5423 11.3386 17.9131 10.9678 17.9201 10.506C17.9201 10.0443 17.5493 9.65948 17.0876 9.65948Z" fill="#ABB2CF" />
            <path d="M17.1225 6.43412C16.6608 6.42712 16.276 6.79793 16.276 7.2597C16.269 7.72146 16.6398 8.10626 17.1086 8.11326H17.1155C17.5773 8.11326 17.9481 7.74245 17.9551 7.28069C17.9621 6.82592 17.5913 6.44111 17.1225 6.43412Z" fill="#ABB2CF" />
            <path d="M17.1435 4.8949C17.1435 4.8949 17.1505 4.8949 17.1575 4.8949C17.6193 4.8949 17.9901 4.5241 17.9971 4.06233C18.0041 3.60057 17.6333 3.21577 17.1645 3.21577C16.7028 3.20877 16.318 3.57958 16.318 4.04134C16.311 4.5101 16.6818 4.88791 17.1435 4.8949Z" fill="#ABB2CF" />
            <path d="M17.0456 12.8778C16.5838 12.8708 16.199 13.2416 16.199 13.7034C16.192 14.1652 16.5628 14.55 17.0316 14.557H17.0386C17.5003 14.557 17.8712 14.1862 17.8782 13.7244C17.8782 13.2626 17.5073 12.8848 17.0456 12.8778Z" fill="#ABB2CF" />
        </g>
        <defs>
            <clipPath id="clip0_80_1629">
                <rect width="34" height="34" fill="white" />
            </clipPath>
        </defs>
    </symbol>
    <use href="#darkNone" x="76" y="344" />
</svg>
